<svg width="1440" height="468" viewBox="0 0 1440 468" fill="none" xmlns="http://www.w3.org/2000/svg">
<path d="M0 468L80 430.7C160 393 320 319 480 308C640 297 800 351 960 372C1120 393 1280 383 1360 377.3L1440 372V244H1360C1280 244 1120 244 960 244C800 244 640 244 480 244C320 244 160 244 80 244H0V468Z" fill="#F2571B"/>
<path d="M0 214.375L80 193.99C160 173.223 320 133.027 480 132.74C640 133.027 800 173.223 960 158.197C1120 142.598 1280 71.7773 1360 35.6973L1440 0V245H1360C1280 245 1120 245 960 245C800 245 640 245 480 245C320 245 160 245 80 245H0V214.375Z" fill="#F2571B"/>
</svg>
