<svg xmlns="http://www.w3.org/2000/svg" xmlns:xlink="http://www.w3.org/1999/xlink" width="794" zoomAndPan="magnify" viewBox="0 0 594.95996 842.24997" height="1123" preserveAspectRatio="xMidYMid meet" version="1.0"><defs><clipPath id="d274c20fd4"><path d="M 6.269531 121 L 588 121 L 588 729.660156 L 6.269531 729.660156 Z M 6.269531 121 " clip-rule="nonzero"/></clipPath></defs><g clip-path="url(#d274c20fd4)"><path fill="#ff751f" d="M 155.570312 121.761719 C 175.179688 122.707031 213.117188 142.964844 227.652344 156.464844 C 234.339844 163.179688 237.308594 172.292969 241.246094 180.691406 C 246.179688 191.984375 252.800781 203.398438 253.285156 215.976562 C 250.382812 272.609375 198.191406 296.726562 218.894531 357.605469 C 222.804688 368.160156 231.558594 376.027344 238.347656 384.765625 C 249.230469 401.621094 271.496094 396.003906 282.722656 382.535156 C 296.128906 359.671875 305.601562 334.257812 317.929688 310.640625 C 332.707031 272.4375 372.519531 249.144531 412.921875 258.75 C 451.457031 265.746094 472.144531 316.109375 499.339844 340.945312 C 509.140625 350.25 522.175781 353.9375 534.964844 357 C 552.101562 362.46875 568.542969 373.730469 577.660156 389.46875 C 595.015625 423.261719 588.375 465.738281 571.96875 498.675781 C 562.964844 513.421875 551.03125 526.238281 540.941406 540.292969 C 539.59375 542.167969 538.128906 543.960938 536.492188 545.585938 C 512.394531 569.515625 500.671875 564.101562 484.53125 602.570312 C 483.8125 604.285156 482.957031 605.941406 482.019531 607.546875 C 459.878906 645.390625 450.105469 688.285156 436.84375 729.660156 L 429.796875 729.660156 C 430.414062 727.78125 431.070312 725.921875 431.78125 724.082031 C 441.152344 695.714844 447.675781 666.375 459.164062 638.710938 C 467.480469 619.820312 477.890625 602.101562 486.878906 583.621094 C 494.007812 566.785156 510.304688 558.628906 524.160156 548.257812 C 525.703125 547.101562 527.152344 545.820312 528.488281 544.429688 C 540.757812 531.613281 550.253906 516.296875 561.523438 502.566406 C 562.710938 501.117188 563.796875 499.582031 564.675781 497.925781 C 592.507812 445.628906 590.40625 372.972656 521.164062 360.011719 C 520.089844 359.8125 519.015625 359.582031 517.976562 359.253906 C 488.410156 349.910156 474.945312 319.085938 454.832031 297.75 C 453.917969 296.785156 453.066406 295.761719 452.289062 294.683594 C 436.390625 272.796875 416.425781 261.183594 388.539062 263.628906 C 352.703125 264.828125 329.933594 294.898438 318.164062 325.722656 C 310.230469 341.960938 301.886719 358.007812 295.007812 374.738281 C 288.078125 392.324219 267.210938 406.648438 248.175781 400.734375 C 234.230469 394.203125 215.871094 370.671875 211.421875 355.976562 C 206.429688 335.617188 205.207031 313.03125 215.210938 293.972656 C 228.238281 266.082031 253.308594 236.640625 244.15625 204.292969 C 235.398438 182.71875 227.523438 157.855469 204.707031 147.964844 C 202.984375 147.21875 201.300781 146.367188 199.695312 145.386719 C 159.246094 120.78125 122.183594 121.0625 89.300781 159.367188 C 65.414062 188.613281 40.257812 222.0625 37.105469 260.855469 C 37.046875 273.804688 35.335938 286.699219 35.257812 299.613281 C 35.242188 302.402344 35.390625 305.191406 35.707031 307.960938 C 37.515625 323.96875 39.84375 339.933594 39.828125 356.082031 C 41.925781 379.058594 41.066406 398.972656 28.671875 419.191406 C 22.875 431.957031 15.125 443.414062 6.28125 454.085938 L 6.28125 443.714844 C 7.460938 442.265625 8.613281 440.792969 9.722656 439.28125 C 18.410156 424.753906 27.445312 409.816406 32.300781 393.5 C 33 391.152344 33.460938 388.738281 33.621094 386.292969 C 34.785156 368.398438 33.132812 350.539062 31.480469 332.6875 C 29.632812 312.65625 27.777344 292.621094 29.898438 272.546875 C 30.039062 271.226562 30.09375 269.894531 30.078125 268.566406 C 29.726562 235.722656 46.65625 206.097656 64.949219 179.855469 C 85.394531 149.351562 115.601562 117.699219 155.566406 121.761719 Z M 413.441406 696.394531 C 433.289062 661.152344 428.863281 615.699219 457.667969 584.699219 C 478.042969 558.566406 506.214844 539.875 526.691406 513.726562 C 545.917969 486.550781 568.6875 447.917969 544.851562 416.886719 C 530.34375 395.65625 504.15625 387.886719 485.644531 370.996094 C 462.324219 353.085938 450.550781 323.925781 427.4375 306.25 C 424.972656 304.363281 422.257812 302.835938 419.359375 301.71875 C 377.707031 285.679688 344.714844 316.722656 334.941406 357.214844 C 326.886719 378.078125 311.855469 395.863281 298 413.210938 C 283.304688 431.015625 258.699219 434.933594 236.75 435.089844 C 219.648438 433.554688 208.078125 417.882812 201.085938 403.570312 C 183.5 362.105469 180.40625 359.878906 192.453125 318.929688 C 193.132812 316.613281 193.613281 314.238281 193.832031 311.832031 C 195.164062 297.433594 199.953125 283.734375 203.1875 269.664062 C 206.804688 256.046875 208.125 241.953125 212.0625 228.425781 C 214.621094 215.96875 220.273438 202.359375 214.917969 189.953125 C 209.132812 178.550781 197.476562 169.644531 184.636719 168.21875 C 133.125 165.316406 75.011719 207.273438 67.882812 259.484375 C 61.011719 295.996094 62.222656 332.835938 60.953125 369.738281 C 59.507812 403.378906 53.523438 436.476562 49.253906 469.804688 C 48.6875 473.890625 48.441406 477.96875 48.441406 482.042969 C 48.441406 495.09375 50.984375 508.066406 53.769531 520.835938 C 58.65625 550.855469 68.652344 581.996094 95.253906 599.605469 C 113.628906 613.488281 136.617188 617.875 157.421875 626.800781 C 175.789062 633.988281 192.535156 644.085938 208.375 655.847656 C 234.902344 675.695312 265.5 697.929688 274.472656 729.660156 L 281.132812 729.660156 C 276.050781 709.332031 263.355469 691.371094 246.378906 677.992188 C 221.109375 655.925781 194.082031 634.742188 162.851562 621.851562 C 139.492188 611.488281 113.226562 607.230469 93.515625 589.847656 C 65.3125 566.71875 61.332031 528.414062 55.992188 494.261719 C 55.492188 491.074219 55.234375 487.851562 55.265625 484.621094 C 55.570312 453.257812 64.636719 422.515625 66.03125 391.144531 C 70.132812 345.222656 66 298.949219 75.742188 253.527344 C 82.140625 221.765625 114.109375 192.640625 143.769531 181.605469 C 166.035156 172.847656 201.960938 167.882812 210.25 197.183594 C 211.328125 209.734375 206.363281 222.03125 203.652344 234.28125 C 199.566406 261.265625 190.1875 287.125 186.847656 314.160156 C 186.582031 316.296875 186.167969 318.40625 185.574219 320.472656 C 181.917969 333.152344 177.167969 345.953125 178.324219 359.226562 C 178.53125 361.589844 179.035156 363.921875 179.8125 366.167969 C 190.007812 395.695312 200.855469 437.175781 236.671875 441.71875 C 259.910156 441.550781 285.808594 437.277344 301.863281 418.824219 C 315.351562 402.835938 328.371094 385.902344 338.007812 367.285156 C 346.554688 345.390625 352.933594 318.878906 376.84375 308.8125 C 410.59375 294.71875 431.300781 313.601562 449.363281 340.410156 C 460.859375 357.09375 475.082031 371.984375 491.402344 384.015625 C 535.351562 410.4375 567.5625 432.539062 535.914062 486.242188 C 519.082031 522.808594 482.960938 544.566406 457.574219 574.386719 C 430.785156 601.621094 425.277344 639.683594 416.136719 675.046875 C 412.882812 684.257812 407.476562 692.503906 403.820312 701.546875 C 400.03125 711.546875 398.34375 722.753906 389.445312 729.660156 L 398.320312 729.660156 C 399.980469 727.738281 401.441406 725.894531 402.640625 724.214844 C 407.078125 715.292969 408.507812 705.148438 413.441406 696.398438 Z M 134.5625 652.539062 C 116.796875 647.820312 98.257812 647.875 80.765625 641.730469 C 57.195312 631.957031 31.394531 618.144531 19.089844 594.8125 C 16.15625 590.074219 11.523438 575.996094 6.28125 562.222656 L 6.28125 582.035156 C 14.679688 603.894531 25.078125 619.15625 48.148438 632.464844 C 70.6875 649.34375 98.640625 653.359375 125.710938 657.273438 C 177.753906 668.847656 191.011719 689.265625 220.519531 729.660156 L 228.4375 729.660156 C 227.183594 727.632812 225.839844 725.652344 224.457031 723.707031 C 196.367188 685.691406 183.09375 665.355469 134.566406 652.539062 Z M 44.929688 692.015625 C 31.183594 684.847656 17.640625 675.695312 6.28125 664.578125 L 6.28125 673.695312 C 18.789062 684.804688 33.339844 693.863281 47.78125 700.746094 C 69.261719 709.78125 81.375 717.4375 89.570312 729.660156 L 97.710938 729.660156 C 86.546875 710.730469 67.664062 702.226562 44.929688 692.015625 Z M 390.757812 655.550781 C 397.632812 631.5 401.746094 606.039062 419.3125 586.917969 C 429.667969 572.558594 439.898438 557.851562 453.28125 546.042969 C 464.945312 534.574219 480.953125 527.378906 490.488281 513.96875 C 491.617188 512.378906 492.5625 510.671875 493.386719 508.90625 C 505.570312 482.730469 520.445312 448.738281 498.699219 423.832031 C 485.921875 409.691406 465.558594 404.980469 453.3125 390.082031 C 443.113281 379.746094 438.128906 365.472656 427.53125 355.558594 C 393.140625 327.03125 368.703125 341.4375 358.703125 381.910156 C 342.058594 436.445312 283.210938 469.359375 227.78125 460.199219 C 210.4375 455.507812 193.910156 445.398438 182.59375 431.242188 C 172.605469 413.214844 163.121094 393.960938 163.019531 372.921875 C 160.429688 342.816406 156.476562 312.226562 163.425781 282.398438 C 166.105469 268.816406 178.632812 260.039062 182.835938 247.054688 C 185.683594 238.261719 190.90625 226.628906 182.339844 219.386719 C 165.730469 206.109375 141.613281 216.621094 128.808594 230.546875 C 110.871094 247.65625 105.117188 273.332031 102.9375 297.183594 C 101.625 313.253906 100.277344 329.492188 102.257812 345.554688 C 104.074219 360.195312 108.421875 374.667969 107.148438 389.539062 C 105.996094 425.945312 85.039062 458.097656 84.105469 494.453125 C 84.058594 495.992188 84.035156 497.496094 84.035156 498.980469 C 84.042969 583.832031 156.882812 584.738281 216.507812 617.457031 C 247.984375 635.914062 269.511719 668.304688 283.394531 701.460938 C 286.433594 710.601562 287.523438 720.109375 288.351562 729.660156 L 294.988281 729.660156 C 293.953125 717.792969 292.625 705.988281 288 694.898438 C 274.964844 666.773438 257.601562 638.761719 232.378906 620.097656 C 202.683594 598.351562 165.703125 590.414062 133.390625 573.457031 C 95.222656 556.886719 84.820312 509.8125 93.457031 472.34375 C 102.34375 438.390625 118.714844 404.539062 112.765625 368.550781 C 105.308594 328.117188 104.269531 282.046875 124.960938 245.246094 C 134.132812 232.574219 147.164062 221.019531 163.4375 219.941406 C 170.660156 219.421875 182.605469 223.269531 180.214844 232.46875 C 176.351562 255.753906 155.773438 268.148438 154.769531 292.507812 C 154.707031 294.007812 154.492188 295.503906 154.238281 296.984375 C 150.761719 317.183594 154.171875 337.457031 154.894531 357.882812 C 156.597656 377.496094 157.195312 397.539062 167.179688 415.101562 C 172.191406 427.085938 177.882812 439.285156 188.8125 447.011719 C 236.699219 488.578125 315.589844 465.160156 349.007812 415.910156 C 370.898438 390.285156 367.953125 323.238281 417.308594 355.859375 C 432.378906 366.050781 437.628906 384.890625 450.746094 397.117188 C 459.761719 406.53125 471.488281 412.417969 482.582031 418.910156 C 516.082031 438.269531 500.867188 477.628906 487.992188 505.285156 C 478.828125 522.355469 459.191406 529.824219 446.152344 543.5625 C 426.472656 564.542969 407.078125 587.742188 395.367188 614.273438 C 387.46875 642.886719 380.945312 671.832031 363.871094 696.808594 C 358.851562 705.640625 354.726562 715.125 347.949219 722.816406 C 345.839844 725.109375 343.585938 727.34375 341.449219 729.660156 L 350.363281 729.660156 C 356.910156 721.875 363.328125 714.003906 367.277344 704.332031 C 376.160156 688.621094 385.992188 673.132812 390.761719 655.550781 Z M 236.507812 592.652344 C 231.585938 589.644531 215.414062 584.054688 207.589844 581.5 C 206.277344 581.070312 204.9375 580.765625 203.570312 580.597656 C 177.105469 577.34375 148.097656 576.855469 131.089844 552.804688 C 122.503906 542.359375 118.632812 529.546875 114.40625 517.015625 C 113.386719 514.003906 111.953125 511.148438 110.148438 508.535156 C 104.617188 500.519531 98.855469 491.972656 101.964844 481.777344 C 104.882812 472.292969 110.160156 463.601562 111.980469 453.757812 C 114.394531 441.414062 113.847656 427.894531 120.882812 417.023438 C 128.683594 405.359375 143.84375 414.992188 148.332031 424.859375 C 151.746094 431.257812 151.972656 438.753906 154.539062 445.484375 C 157.109375 452.15625 159.59375 458.886719 162.703125 465.335938 C 170.921875 481.328125 189.414062 488.347656 204.253906 496.722656 C 214.753906 502.574219 226.398438 504.585938 238.292969 504.066406 C 244.625 504.3125 250.921875 505.332031 257.265625 505.140625 C 271.714844 503.871094 284.835938 496.449219 298.546875 492.417969 C 314.046875 487.378906 329.238281 480.449219 341.640625 469.695312 C 358.433594 456.246094 354.082031 443.789062 363.789062 428.460938 C 372.703125 417.585938 383.460938 400.292969 397.59375 396.898438 C 419.878906 396.054688 430.910156 409.3125 439.996094 427.765625 C 446.453125 437.832031 457.21875 444.808594 462.277344 455.761719 C 470.609375 477.140625 462.070312 502.230469 445.515625 517.242188 C 437.839844 524.578125 430.265625 532.203125 423.519531 540.328125 C 419.082031 546.09375 412.703125 549.367188 407.066406 553.679688 C 398.128906 560.957031 395.203125 572.582031 388.734375 581.773438 C 381.457031 595.707031 371.039062 608.675781 370.179688 624.933594 C 368.070312 642.496094 368.347656 660.914062 358.09375 676.195312 C 346.078125 697.554688 320.996094 694.601562 306.414062 677.5 C 296.289062 666.886719 294.707031 651.355469 288.324219 638.695312 C 278.3125 618.019531 255.511719 604.324219 236.507812 592.652344 Z M 288.773438 626.160156 C 296.839844 637.574219 299.847656 652.019531 305.4375 664.453125 C 312.398438 679.382812 334.003906 692.832031 347.886719 678.800781 C 360.636719 664.734375 361.773438 645.460938 363.105469 627.496094 C 363.710938 609.859375 373.394531 595.417969 381.78125 580.550781 C 388.136719 571.367188 391.527344 560.203125 399.207031 552.039062 C 403.214844 547.273438 408.925781 544.71875 413.671875 540.890625 C 420.179688 534.820312 425.328125 527.460938 431.859375 521.390625 C 450.054688 505.765625 465.3125 483.707031 456.375 458.902344 C 452.929688 450.816406 445.542969 445.488281 440.164062 438.785156 C 431.402344 429.9375 428.886719 416.328125 418.347656 409.105469 C 411.351562 404.9375 400.964844 400.824219 393.417969 405.578125 C 383.808594 413.167969 376.058594 423.066406 368.800781 432.871094 C 361.8125 444.601562 362.851562 458.644531 352.039062 468.65625 C 331.445312 491.601562 299.921875 498.25 272.296875 508.839844 C 261.882812 512.621094 250.898438 511.941406 240.089844 510.804688 C 233.660156 510.351562 227.144531 511.015625 220.785156 509.738281 C 203.289062 505.726562 188.144531 495.8125 173.160156 486.496094 C 158.136719 477.089844 152.523438 459.773438 147.066406 443.863281 C 145.09375 437.59375 144.898438 430.617188 140.75 425.246094 C 121.675781 401.804688 120.886719 444.007812 118.324219 455.75 C 116.683594 466.992188 108.71875 476.625 107.886719 487.875 C 107.808594 494.761719 112.152344 499.617188 115.863281 504.855469 C 117.933594 507.78125 119.503906 511.035156 120.46875 514.488281 C 127.226562 538.5625 141.039062 563.632812 167.503906 568.949219 C 190.4375 573.472656 211.464844 573.039062 232.902344 583.503906 C 233.371094 583.730469 233.847656 583.9375 234.332031 584.113281 C 235.472656 584.523438 238.28125 586.019531 238.667969 586.28125 C 246.453125 590.964844 254.617188 595.128906 261.570312 601.050781 C 271.375 608.632812 281.667969 615.945312 288.773438 626.160156 Z M 323.417969 622.339844 C 319.175781 621.378906 314.617188 621.417969 310.601562 619.53125 C 296.9375 613.5625 291.082031 598.886719 280.566406 589.273438 C 268.683594 579.324219 253.238281 575.753906 239.226562 570.328125 C 229.804688 567.441406 219.675781 564.191406 210.195312 562.328125 C 203.808594 561.109375 197.269531 560.246094 191.421875 557.21875 C 182.054688 552.382812 172.46875 547.601562 164.046875 541.210938 C 162.425781 539.980469 160.984375 538.519531 159.855469 536.824219 C 156.683594 532.074219 154.621094 526.207031 154.785156 520.597656 C 157.285156 498.039062 204.664062 525.894531 217.859375 526.789062 C 230.371094 528.3125 243.121094 528.792969 255.71875 528.464844 C 266.949219 526.871094 278.179688 524.191406 289.109375 521.199219 C 298.15625 517.390625 307.316406 513.402344 317.332031 513.355469 C 325.554688 512.203125 332.371094 506.246094 339.699219 502.652344 C 345.328125 498.878906 349.65625 493.683594 354.246094 488.785156 C 357.53125 485.335938 361.410156 482.425781 364.316406 478.632812 C 369.097656 469.667969 375.121094 461.480469 380.089844 452.648438 C 386.960938 437.195312 399.5 431.941406 412.683594 444.558594 C 422.714844 454.867188 424.386719 469.609375 425.699219 483.332031 C 425.867188 485.0625 425.800781 486.816406 425.40625 488.511719 C 422.085938 502.816406 403.148438 513.070312 393.878906 523.347656 C 386.066406 532.648438 380.527344 544.003906 371.628906 552.339844 C 368.363281 554.867188 363.648438 555.398438 362.089844 559.773438 C 359.976562 564.90625 358.257812 570.203125 355.574219 575.082031 C 352.792969 580.753906 347.421875 584.777344 345.335938 590.824219 C 342.785156 598.132812 344.1875 605.980469 343.074219 613.488281 C 342.128906 623.140625 331.230469 626.269531 323.417969 622.34375 Z M 337.550781 595.167969 C 338.101562 585.117188 346.175781 578.722656 350.542969 570.402344 C 353.425781 565.132812 354.492188 558.65625 358.003906 553.796875 C 359.261719 552.050781 360.972656 550.679688 362.902344 549.730469 C 368.445312 547.003906 371.878906 543.0625 375.277344 537.589844 C 381.09375 530.09375 385.71875 521.507812 392.800781 515.097656 C 400.160156 508.070312 411.894531 500.550781 417.164062 491.207031 C 418.578125 488.695312 419.183594 485.8125 418.941406 482.945312 C 417.898438 470.542969 416.285156 457.160156 406.945312 448.199219 C 395.3125 438.402344 389.4375 448.21875 384.515625 458.484375 C 381.140625 464.488281 376.574219 469.726562 373.558594 475.953125 C 370.808594 481.730469 366.6875 486.484375 361.851562 490.605469 C 353.980469 498.445312 346.960938 507.535156 336.472656 512.058594 C 325.996094 518.519531 321.933594 519.953125 309.726562 520.835938 C 302.910156 522.152344 296.808594 525.550781 290.304688 527.785156 C 279.804688 530.660156 269.472656 532.8125 258.878906 534.820312 C 245.667969 535.894531 232.285156 534.773438 219.101562 533.707031 C 200.394531 530.820312 183.699219 519.527344 164.648438 518.300781 C 162.246094 518.464844 160.929688 520.210938 161.351562 522.675781 C 162.5 528.949219 165.324219 535.195312 171.226562 538.222656 C 178 542.71875 185.1875 546.550781 192.394531 550.3125 C 198.980469 554.046875 206.507812 554.828125 213.789062 556.320312 C 227.386719 559.289062 240.761719 563.78125 253.785156 568.53125 C 303.519531 583.011719 292.054688 612.679688 323.78125 615.628906 C 341.582031 622.886719 335.460938 605.890625 337.550781 595.167969 Z M 337.550781 595.167969 " fill-opacity="1" fill-rule="nonzero"/></g></svg>