<svg width="35" height="28" viewBox="0 0 35 28" fill="none" xmlns="http://www.w3.org/2000/svg">
<path d="M17 27.5999C16.8 27.5999 16.5 27.4999 16.3 27.3999C14.5 26.3999 1.2 17.9999 0.699997 17.6999C0.299997 17.4999 0.1 17.1999 0 16.6999V4.9999C0 4.5999 0.200006 4.1999 0.600006 3.8999L0.699997 3.7999C2 2.9999 6.3 0.399901 7 -9.91821e-05C7.2 -0.100099 7.3 -0.100098 7.5 -0.100098C7.7 -0.100098 7.8 -0.100099 8 -9.91821e-05C8 -9.91821e-05 14 3.8999 15 4.2999C15.6 4.5999 16.4 4.6999 17.1 4.6999C17.9 4.6999 18.7 4.4999 19.4 4.0999C20.3 3.5999 26.1 -9.91821e-05 26.1 -9.91821e-05C26.2 -0.100099 26.4 -0.100098 26.6 -0.100098C26.8 -0.100098 27 -9.91821e-05 27.1 -9.91821e-05C27.9 0.399901 33.2 3.6999 33.5 3.8999C33.9 4.0999 34.1 4.4999 34.1 4.9999V16.6999C34.1 17.0999 33.8 17.4999 33.4 17.6999C32.9 17.9999 19.6 26.2999 17.8 27.3999C17.5 27.4999 17.3 27.5999 17 27.5999Z" fill="url(#paint0_linear_446_66)"/>
<defs>
<linearGradient id="paint0_linear_446_66" x1="-0.00303971" y1="13.8021" x2="34.0537" y2="13.8021" gradientUnits="userSpaceOnUse">
<stop stop-color="#FF9200"/>
<stop offset="0.29" stop-color="#F36D00"/>
<stop offset="0.32" stop-color="#F4680B"/>
<stop offset="0.57" stop-color="#F83C72"/>
<stop offset="0.78" stop-color="#FC1CBE"/>
<stop offset="0.93" stop-color="#FE08ED"/>
<stop offset="1" stop-color="#FF00FF"/>
</linearGradient>
</defs>
</svg>
