<svg width="502" height="402" viewBox="0 0 502 402" fill="none" xmlns="http://www.w3.org/2000/svg">
    <path d="M21.2837 283.868C-26.0448 193.079 20.4263 100.371 49.578 65.3651C52.1502 61.9775 54.4174 61 54.8462 61C52.274 66.0815 55.5798 64.2359 57.2946 63.6713C60.4472 62.6333 71.1213 52.9756 74.9796 50.1525C85.2684 41.6834 91.7256 36.5921 94.1123 34.8983C130.123 9.34157 160.183 1.64349 171.758 1H501L486.853 39.9578H466.275C445.698 41.3129 439.696 58.5898 439.267 67.0589V227.972C422.805 355.347 303.369 396.789 247.638 400.741C115.941 406.161 41.4327 325.084 21.2837 283.868Z" fill="#145207" stroke="white" stroke-width="0.3"/>
    <path fill-rule="evenodd" clip-rule="evenodd" d="M91.7702 38.2881C76.238 55.9771 58.7104 95.2403 92.9651 129.477C112.144 148.646 125.259 154.764 134.799 159.215C146.56 164.701 156.298 167.352 161.86 189.09C163.12 194.225 168.157 197.649 173.195 195.937C178.232 194.225 193.714 199.662 203.789 209.933C206.256 212.448 213.318 216.024 218.136 219.644C231.951 230.798 253.963 246.998 265.376 271.56C280.488 304.085 208.827 309.22 207.567 309.22C207.526 309.22 207.403 309.229 207.204 309.244C201.348 309.684 131.87 314.37 131.87 234.898C130.578 231.508 125.412 229.814 125.412 251.847C126.677 259.524 128.573 267.766 141.221 293.99C154.865 322.277 103.88 279.548 76.5933 257.865C73.235 255.012 62.9922 249.306 48.8873 249.306C46.7884 248.735 45.613 245.197 57.7029 235.611L60.2216 233.899C42.1708 208.792 17.3548 138.707 53.6245 62.017C56.4764 58.3966 57.3083 56.9322 55.6762 62.017C54.0133 67.1975 68.9739 57.1095 81.6308 45.5969C88.1791 39.6407 90.9114 38.2881 91.7702 38.2881ZM203.789 264.712C202.782 264.712 201.27 261.289 201.27 259.577C201.254 259.454 201.253 259.32 201.252 259.183C201.245 258.209 201.041 255.272 196.233 259.207C193.08 261.786 193.08 265.176 193.714 267.766C199.595 274.871 200.168 274.677 201.27 274.983C202.53 274.983 201.981 274.983 207.567 274.983C214.819 274.983 214.588 271.957 212.909 267.963C208.879 261.115 208.407 260.718 207.567 261.289C207.147 261.669 206.7 262.176 206.252 262.683C205.356 263.698 204.461 264.712 203.789 264.712Z" fill="url(#paint0_linear_323_22)"/>
    <path fill-rule="evenodd" clip-rule="evenodd" d="M170.231 45.9997C169.761 46.0449 158.989 55.5765 153.823 56.9325C148.658 58.2884 135.615 60.9997 134.333 60.9997C130.487 62.6664 130.487 62.6664 127.995 68.7969C122.513 82.284 140.909 102.695 174.486 129.814C187.4 135.464 218.652 141 240.348 117.949L254.554 102.695C256.275 101 261.011 104.389 258.428 114.559C258.424 113.897 261.011 124.729 222.268 141.678C219.685 142.808 217.361 145.407 228.725 146.763C242.5 151.848 268.243 169.814 261.011 201C265.746 198.175 275.216 189.475 275.216 177.271C313.528 202.13 368.715 269.136 282.965 338.288C328.595 338.853 410.04 298.966 370.781 134.899C369.059 128.119 366.648 110.831 370.781 95.9155L375.946 73.8816C375.946 73.3167 372.847 73.5426 360.449 78.9664C355.284 81.2263 340.045 84.7291 320.416 80.6613C307.502 77.8364 277.541 68.4579 261.011 53.5426C251 49.333 204.846 42.6664 170.231 45.9997ZM173.195 94.2208C170.612 89.1352 171.903 84.0505 174.486 82.3555C179.652 78.9657 182.234 80.6606 184.817 84.0505L186.109 89.1352L188.692 87.4403H191.274C192.566 87.4403 196.87 90.2652 197.731 92.525C196.44 101 189.983 101 184.817 101C179.652 99.3055 172.849 93.8866 173.195 94.2208Z" fill="#FF3F00"/>
    <defs>
    <linearGradient id="paint0_linear_323_22" x1="54.8461" y1="61.0001" x2="220.952" y2="175.515" gradientUnits="userSpaceOnUse">
    <stop stop-color="white"/>
    <stop offset="0.12" stop-color="#FF3F00"/>
    </linearGradient>
    </defs>
</svg>
