<svg width="53" height="60" viewBox="0 0 53 60" fill="none" xmlns="http://www.w3.org/2000/svg">
<path d="M46.4 11.6002C46.4 11.3002 46.1 11.1002 45.9 11.1002C45.7 11.1002 41.4 11.0002 41.4 11.0002C41.4 11.0002 37.8 7.50018 37.5 7.20018C37.1 6.80018 36.5 7.00018 36.2 7.00018C36.2 7.00018 35.5 7.20018 34.4 7.60018C34.2 7.00018 33.9 6.20018 33.5 5.50018C32.2 3.10018 30.4 1.80018 28.1 1.80018C27.9 1.80018 27.8 1.80018 27.6 1.80018C27.5 1.70018 27.5 1.60018 27.4 1.60018C26.4 0.600182 25.2 0.000181672 23.7 0.100182C20.8 0.200182 17.9 2.30018 15.6 6.00018C13.9 8.60018 12.7 11.9002 12.3 14.5002C9 15.5002 6.6 16.3002 6.6 16.3002C4.9 16.8002 4.9 16.9002 4.6 18.5002C4.4 19.5002 0 53.6002 0 53.6002L36.9 60.0002L52.9 56.0002C52.9 56.0002 46.4 11.9002 46.4 11.6002ZM32.5 8.10018C31.6 8.40018 30.7 8.70018 29.6 9.00018C29.6 7.50018 29.4 5.50018 28.7 3.70018C30.9 4.10018 32 6.60018 32.5 8.10018ZM27.7 9.60018C25.8 10.2002 23.7 10.9002 21.5 11.5002C22.1 9.20018 23.2 6.90018 24.6 5.50018C25.1 4.90018 25.8 4.30018 26.7 4.00018C27.5 5.60018 27.7 8.00018 27.7 9.60018ZM23.7 1.90018C24.4 1.90018 25 2.00018 25.4 2.40018C24.6 2.80018 23.9 3.40018 23.1 4.20018C21.3 6.20018 19.8 9.30018 19.3 12.2002C17.5 12.7002 15.8 13.3002 14.2 13.8002C15.3 9.10018 19.2 2.10018 23.7 1.90018Z" fill="#95BF47"/>
<path d="M45.9 11.0999C45.7 11.0999 41.4 10.9999 41.4 10.9999C41.4 10.9999 37.8 7.4999 37.5 7.1999C37.3 6.9999 37.1 6.9999 36.9 6.8999V59.9999L52.9 55.9999C52.9 55.9999 46.4 11.7999 46.3 11.4999C46.3 11.2999 46.1 11.0999 45.9 11.0999Z" fill="#5E8E3E"/>
<path d="M28.1 19.3002L26.2 26.3002C26.2 26.3002 24.1 25.4002 21.7 25.5002C18.1 25.7002 18.1 28.0002 18.1 28.6002C18.3 31.7002 26.5 32.4002 26.9 39.7002C27.3 45.4002 23.9 49.4002 19 49.7002C13.1 50.1002 9.90002 46.6002 9.90002 46.6002L11.1 41.3002C11.1 41.3002 14.4 43.8002 17 43.6002C18.7 43.5002 19.3 42.1002 19.3 41.1002C19 37.0002 12.4 37.3002 12 30.6002C11.6 25.0002 15.3 19.3002 23.5 18.8002C26.5 18.5002 28.1 19.3002 28.1 19.3002Z" fill="white"/>
</svg>
