<svg width="332" height="373" viewBox="0 0 332 373" fill="none" xmlns="http://www.w3.org/2000/svg">
<path d="M16.8999 103.9H92.1999C94.4999 78.4 101.6 55.5 111.8 37.8C125.3 14.4 144.5 0 166.2 0C187.9 0 207 14.5 220.6 37.8C230.8 55.4 237.9 78.4 240.2 103.9H315.4C324.3 103.9 332.3 111.2 331.6 120.1L316.5 330.8C314.6 357.2 298 372.3 273.9 372.3H58.5C31.7 372.3 17.4999 353.6 15.8999 330.8L0.699949 120.2C0.0999491 111.3 7.99995 103.9 16.8999 103.9ZM111 103.9H221.2C219 81.8 212.9 62.2 204.2 47.2C194.2 29.7 180.6 18.8 166.2 18.8C151.7 18.8 138.2 29.7 128 47.3C119.3 62.2 113.3 81.9 111 103.9Z" fill="#EA501F"/>
<path d="M111.5 298.4C108 296 107.1 291.3 109.5 287.8C111.9 284.3 116.6 283.4 120.1 285.8C122.3 287.3 124.6 288.8 127.1 290.3C144.7 301 160.9 306.3 174.4 306.3C186.6 306.3 196.5 301.7 202.8 292.4C203.2 291.7 203.6 291.3 203.7 291C205.5 288.1 206.8 285 207.7 282C209.5 275.8 209.2 269.4 206.7 263.6C204 257.5 198.8 251.6 190.7 246.7C185.3 243.4 178.6 240.5 170.5 238.3C149.9 232.5 134.7 224.3 126.5 213.3C117.5 201.2 116.8 186.6 126.4 168.9C132.8 157.2 145.9 149.9 162.5 148.6C176.8 147.5 194 150.9 211.5 159.8C215.3 161.7 216.8 166.3 214.8 170.1C212.8 173.9 208.3 175.4 204.5 173.4C189.6 165.8 175.4 162.9 163.6 163.8C152.3 164.7 143.7 169.1 139.9 176.1C133.5 187.8 133.6 197 138.8 204C144.8 212.1 157.3 218.4 174.7 223.3C184.1 226 192.1 229.4 198.7 233.4C209.6 240 216.9 248.3 220.8 257.3C224.8 266.6 225.3 276.4 222.6 286C221.4 290.3 219.5 294.6 216.9 298.8C216.3 299.7 215.9 300.4 215.6 300.9C206.3 314.6 192 321.4 174.6 321.5C158.3 321.5 139.3 315.5 119.3 303.3C116.8 301.9 114.2 300.3 111.5 298.4Z" fill="white"/>
</svg>
